<svg xmlns="http://www.w3.org/2000/svg" xmlns:xlink="http://www.w3.org/1999/xlink" version="1.1" width="1000" height="1000" viewBox="0 0 1000 1000" xml:space="preserve">
<rect x="0" y="0" width="100%" height="100%" fill="transparent"/>
<g transform="matrix(37.8784 0 0 37.8784 500 500.0001)" id="286100">
<path style="stroke: none; stroke-width: 1; stroke-dasharray: none; stroke-linecap: butt; stroke-dashoffset: 0; stroke-linejoin: miter; stroke-miterlimit: 4; is-custom-font: none; font-file-url: none; fill: aqua; fill-rule: nonzero; opacity: 1;" vector-effect="non-scaling-stroke" transform=" translate(-11.9999, -12)" d="M 0 11.5 C 0 6.813 3.813 3 8.5 3 h 10.5 V 1.337 C 19 0.446 20.077 0 20.707 0.63 l 3 3.163 c 0.391 0.391 0.39 1.024 0 1.414 l -3 3.163 c -0.63 0.63 -1.707 0.184 -1.707 -0.707 v -1.663 H 8.5 c -3.033 0 -5.5 2.468 -5.5 5.5 c 0 0.828 -0.671 1.5 -1.5 1.5 s -1.5 -0.672 -1.5 -1.5 Z m 22.5 -0.5 c -0.829 0 -1.5 0.672 -1.5 1.5 c 0 3.032 -2.467 5.5 -5.5 5.5 H 5 v -1.663 c 0 -0.891 -1.077 -1.337 -1.707 -0.707 L 0.293 18.793 c -0.391 0.391 -0.391 1.024 0 1.414 l 3 3.163 c 0.63 0.63 1.707 0.184 1.707 -0.707 v -1.663 H 15.5 c 4.687 0 8.5 -3.813 8.5 -8.5 c 0 -0.828 -0.671 -1.5 -1.5 -1.5 Z" stroke-linecap="round"/>
</g>
<g transform="matrix(1 0 0 1 500 500)" style="" id="323387">
		
<path xml:space="preserve" font-family="Lato" font-size="380" font-style="normal" font-weight="bold" style="stroke: none; stroke-width: 1; stroke-dasharray: none; stroke-linecap: butt; stroke-dashoffset: 0; stroke-linejoin: miter; stroke-miterlimit: 4; is-custom-font: none; font-file-url: none; fill: aqua; fill-rule: nonzero; opacity: 1; white-space: pre;" d="M-59.09 119.37L-59.09 84.22L-3.42 84.22L-3.42-75.95Q-3.42-85.26-2.85-95.52L-2.85-95.52L-42.37-62.46Q-44.84-60.37-47.41-59.61Q-49.97-58.85-52.44-58.85L-52.44-58.85Q-56.24-58.85-59.38-60.46Q-62.51-62.08-64.03-64.17L-64.03-64.17L-78.85-84.50L4.94-155.75L43.51-155.75L43.51 84.22L92.91 84.22L92.91 119.37L-59.09 119.37Z"/></g>
</svg>