<svg width="512" height="512"  viewBox="0 0 24 24" xmlns="http://www.w3.org/2000/svg">
	<g>
		<path fill="crimson" d="m13.82,0.2a12.054,12.054 0 0 0 -7.554,4.8l-1.266,0a5.008,5.008 0 0 0 -5,5l0,4a5.008,5.008 0 0 0 5,5l1.266,0a12.059,12.059 0 0 0 7.554,4.8a0.917,0.917 0 0 0 0.181,0.017a1,1 0 0 0 1,-1l0,-21.631a1,1 0 0 0 -1.181,-0.986zm-0.82,21.335a10.083,10.083 0 0 1 -5.371,-4.08a1,1 0 0 0 -0.837,-0.455l-1.792,0a3,3 0 0 1 -3,-3l0,-4a3,3 0 0 1 3,-3l1.8,0a1,1 0 0 0 0.837,-0.453a10.079,10.079 0 0 1 5.363,-4.082l0,19.07z" id="svg_3"/>	
		<path transform="rotate(45 19.7206 11.4654)" stroke="crimson" id="svg_2" d="m17.11328,11.37525l5.21454,0l0,0c0.68312,0 1.2369,0.04034 1.2369,0.09011c0,0.04976 -0.55378,0.09011 -1.2369,0.09011l-5.21454,0l0,0c-0.68312,0 -1.2369,-0.04034 -1.2369,-0.09011c0,-0.04976 0.55378,-0.09011 1.2369,-0.09011z"/>
		<path transform="rotate(135 19.7205 11.7207)" stroke="crimson" id="svg_7" d="m17.11323,11.63057l5.21454,0l0,0c0.68312,0 1.23689,0.04034 1.23689,0.09011c0,0.04976 -0.55377,0.0901 -1.23689,0.0901l-5.21454,0l0,0c-0.68312,0 -1.2369,-0.04034 -1.2369,-0.0901c0,-0.04977 0.55378,-0.09011 1.2369,-0.09011z"/>
	</g>
</svg>